<svg width="193" height="193" viewBox="0 0 193 193" fill="none" xmlns="http://www.w3.org/2000/svg">
<rect width="193" height="193" fill="white"/>
<path d="M42.096 137C41.84 137 41.712 136.744 41.712 136.232C41.712 135.72 41.84 135.464 42.096 135.464C44.656 135.464 46.5333 135.251 47.728 134.824C48.9227 134.312 49.7333 133.459 50.16 132.264C50.672 131.069 50.928 129.192 50.928 126.632V97.832C50.928 95.6133 50.7147 94.0773 50.288 93.224C49.8613 92.2853 49.0507 91.688 47.856 91.432C46.6613 91.0907 44.5707 90.92 41.584 90.92C41.328 90.92 41.2 90.664 41.2 90.152C41.2 89.5547 41.328 89.256 41.584 89.256C45.0827 89.256 47.4293 88.872 48.624 88.104C49.904 87.2507 50.5867 85.7147 50.672 83.496C51.0987 69.672 53.616 59.6453 58.224 53.416C62.9173 47.1867 69.7867 44.072 78.832 44.072C83.184 44.072 86.7253 44.7547 89.456 46.12C92.272 47.4 93.68 48.9787 93.68 50.856C93.68 52.136 93.2107 53.16 92.272 53.928C91.4187 54.6107 90.3947 54.952 89.2 54.952C88.176 54.952 87.28 54.696 86.512 54.184C85.8293 53.672 85.0613 52.8187 84.208 51.624C82.8427 49.832 81.392 48.5093 79.856 47.656C78.4053 46.7173 76.5707 46.248 74.352 46.248C69.4027 46.248 65.4773 49.1067 62.576 54.824C59.6747 60.5413 58.224 69.2027 58.224 80.808V126.632C58.224 129.277 58.5227 131.197 59.12 132.392C59.7173 133.587 60.8693 134.397 62.576 134.824C64.2827 135.251 67.0133 135.464 70.768 135.464C71.024 135.464 71.152 135.72 71.152 136.232C71.152 136.744 71.024 137 70.768 137L62.576 136.872C60.784 136.787 58.0533 136.744 54.384 136.744L47.216 136.872C46.0213 136.957 44.3147 137 42.096 137ZM74.224 93.864C68.7627 92.4987 62.3627 91.816 55.024 91.816V89C60.2293 89 66.7573 88.5733 74.608 87.72C74.864 87.72 75.0773 88.0187 75.248 88.616C75.4187 89.2133 75.504 89.9387 75.504 90.792C75.504 91.4747 75.376 92.2 75.12 92.968C74.864 93.6507 74.5653 93.9493 74.224 93.864ZM113.096 90.152C113.352 89.5547 113.139 89.256 112.456 89.256C105.8 89.256 100.637 89.5547 96.968 90.152C93.2987 90.664 90.3973 91.7307 88.264 93.352C86.216 94.9733 84.7227 97.4053 83.784 100.648C83.784 100.819 83.6133 100.904 83.272 100.904C83.016 100.904 82.76 100.861 82.504 100.776C82.3333 100.605 82.2907 100.477 82.376 100.392L86.728 83.88C86.8133 83.7093 87.0693 83.6667 87.496 83.752C88.008 83.752 88.2213 83.8373 88.136 84.008C88.0507 84.264 88.008 84.6053 88.008 85.032C88.008 86.056 88.4773 86.7387 89.416 87.08C90.3547 87.4213 91.976 87.592 94.28 87.592H121.416C121.757 87.592 122.013 87.7627 122.184 88.104C122.44 88.4453 122.525 88.7867 122.44 89.128L92.232 134.184C91.8907 134.781 92.104 135.08 92.872 135.08C101.235 135.08 107.165 134.824 110.664 134.312C114.248 133.8 116.851 132.733 118.472 131.112C120.093 129.405 121.544 126.504 122.824 122.408C122.909 122.237 123.165 122.152 123.592 122.152C124.019 122.152 124.232 122.237 124.232 122.408L123.976 135.592C123.976 135.933 123.848 136.275 123.592 136.616C123.421 136.872 123.165 137 122.824 137H83.272C82.9307 137 82.632 136.829 82.376 136.488C82.2053 136.147 82.2053 135.805 82.376 135.464L113.096 90.152ZM141.547 138.408C139.84 138.408 138.475 137.896 137.451 136.872C136.427 135.848 135.915 134.525 135.915 132.904C135.915 131.283 136.427 130.003 137.451 129.064C138.475 128.04 139.84 127.528 141.547 127.528C143.339 127.528 144.704 127.997 145.643 128.936C146.582 129.875 147.051 131.197 147.051 132.904C147.051 134.611 146.582 135.976 145.643 137C144.704 137.939 143.339 138.408 141.547 138.408Z" fill="black"/>
</svg>
